<svg width="18" height="14" viewBox="0 0 18 14" fill="none" xmlns="http://www.w3.org/2000/svg">
<path d="M17.8188 6.00017L14.9256 0.884333C14.9184 0.8715 14.9028 0.866833 14.8944 0.855167C14.8246 0.746039 14.7191 0.662828 14.5949 0.618836C14.4707 0.574845 14.3349 0.572614 14.2092 0.6125L9.6 2.10467V0.583333C9.6 0.428624 9.53679 0.280251 9.42426 0.170854C9.31174 0.0614583 9.15913 0 9 0C8.84087 0 8.68826 0.0614583 8.57574 0.170854C8.46321 0.280251 8.4 0.428624 8.4 0.583333V2.492L3.39 4.1125C3.3492 4.12533 3.318 4.15217 3.282 4.17317H3.2808C3.20043 4.21855 3.13218 4.2817 3.0816 4.3575C3.0756 4.36567 3.0648 4.36917 3.0588 4.3785L0.0792 9.48267C0.017744 9.59317 -0.00460525 9.72026 0.0156 9.84433C0.012 9.86883 0 9.891 0 9.91667C0 11.1183 1.866 12.8333 3.6 12.8333C5.334 12.8333 7.2 11.1183 7.2 9.91667C7.19953 9.84413 7.18444 9.77239 7.1556 9.7055L7.1544 9.6985L7.1508 9.68683C7.14083 9.61533 7.11766 9.54616 7.0824 9.48267L4.4628 4.99683L8.4 3.72283V13.4167C8.4 13.5714 8.46321 13.7197 8.57574 13.8291C8.68826 13.9385 8.84087 14 9 14C9.15913 14 9.31174 13.9385 9.42426 13.8291C9.53679 13.7197 9.6 13.5714 9.6 13.4167V3.33433L13.1352 2.191L10.9812 6.00133C10.9238 6.05514 10.8782 6.11966 10.847 6.19103C10.8159 6.2624 10.7999 6.33914 10.8 6.41667C10.8 7.61833 12.666 9.33333 14.4 9.33333C16.134 9.33333 18 7.61833 18 6.41667C18 6.33899 17.984 6.2621 17.9528 6.19055C17.9217 6.11901 17.8761 6.05427 17.8188 6.00017ZM1.5456 9.33333L3.5808 5.8485L5.6148 9.33333H1.5456ZM12.4464 5.83333L14.4 2.37767L16.3536 5.83333H12.4464Z" fill="#633E7F"/>
</svg>
